<svg width="21" height="20" viewBox="0 0 21 20" fill="none" xmlns="http://www.w3.org/2000/svg">
<path fill-rule="evenodd" clip-rule="evenodd" d="M9.78243 17.813C10.2456 17.3498 10.2456 16.5989 9.78243 16.1357L5.01534 11.3686H18.69C19.2995 11.3686 19.7936 10.8745 19.7936 10.2649C19.7936 9.65539 19.2995 9.16127 18.69 9.16127H5.01508L9.78242 4.39393C10.2456 3.93073 10.2456 3.17974 9.78243 2.71654C9.31923 2.25334 8.56823 2.25334 8.10504 2.71654L1.31923 9.50234C0.898146 9.92343 0.898146 10.6062 1.31923 11.0272L8.10504 17.813C8.56823 18.2762 9.31923 18.2762 9.78243 17.813Z" fill="white"/>
<path d="M9.78243 16.1357L9.26139 16.6567L9.78243 16.1357ZM9.78243 17.813L10.3035 18.3341L10.3035 18.3341L9.78243 17.813ZM5.01534 11.3686V10.6317H3.23642L4.49431 11.8896L5.01534 11.3686ZM5.01508 9.16127L4.49405 8.64024L3.23616 9.89813H5.01508V9.16127ZM9.78242 4.39393L9.26139 3.8729V3.8729L9.78242 4.39393ZM9.78243 2.71654L10.3035 2.19551L10.3035 2.1955L9.78243 2.71654ZM8.10504 2.71654L8.62607 3.23757V3.23757L8.10504 2.71654ZM1.31923 9.50234L1.84027 10.0234L1.31923 9.50234ZM1.31923 11.0272L0.7982 11.5483L1.31923 11.0272ZM8.10504 17.813L8.62607 17.292L8.10504 17.813ZM9.26139 16.6567C9.43683 16.8321 9.43683 17.1166 9.26139 17.292L10.3035 18.3341C11.0544 17.5831 11.0544 16.3656 10.3035 15.6146L9.26139 16.6567ZM4.49431 11.8896L9.26139 16.6567L10.3035 15.6146L5.53638 10.8475L4.49431 11.8896ZM18.69 10.6317H5.01534V12.1054H18.69V10.6317ZM19.0568 10.2649C19.0568 10.4675 18.8926 10.6317 18.69 10.6317V12.1054C19.7065 12.1054 20.5305 11.2814 20.5305 10.2649H19.0568ZM18.69 9.89813C18.8926 9.89813 19.0568 10.0623 19.0568 10.2649H20.5305C20.5305 9.24844 19.7065 8.42442 18.69 8.42442V9.89813ZM5.01508 9.89813H18.69V8.42442H5.01508V9.89813ZM9.26139 3.8729L4.49405 8.64024L5.53612 9.68231L10.3035 4.91496L9.26139 3.8729ZM9.26139 3.23757C9.43683 3.41301 9.43683 3.69746 9.26139 3.8729L10.3035 4.91496C11.0544 4.16401 11.0544 2.94646 10.3035 2.19551L9.26139 3.23757ZM8.62607 3.23757C8.80151 3.06214 9.08595 3.06213 9.26139 3.23757L10.3035 2.1955C9.5525 1.44455 8.33496 1.44455 7.584 2.19551L8.62607 3.23757ZM1.84027 10.0234L8.62607 3.23757L7.584 2.19551L0.7982 8.98131L1.84027 10.0234ZM1.84027 10.5062C1.70694 10.3729 1.70694 10.1567 1.84027 10.0234L0.7982 8.98131C0.0893524 9.69016 0.0893514 10.8394 0.7982 11.5483L1.84027 10.5062ZM8.62607 17.292L1.84027 10.5062L0.7982 11.5483L7.584 18.3341L8.62607 17.292ZM9.26139 17.292C9.08595 17.4675 8.80151 17.4675 8.62607 17.292L7.584 18.3341C8.33496 19.085 9.5525 19.085 10.3035 18.3341L9.26139 17.292Z" fill="white"/>
</svg>
